<svg xmlns="http://www.w3.org/2000/svg" width="801" height="562" viewBox="0 0 801 562" fill="none"><g opacity="0.3"><line x1="800" y1="0.562622" y2="0.562622" stroke="#165E67"></line><line x1="800" y1="80.5626" y2="80.5626" stroke="#165E67"></line><line x1="800" y1="160.563" y2="160.563" stroke="#165E67"></line><line x1="800" y1="240.563" y2="240.563" stroke="#165E67"></line><line x1="800" y1="320.563" y2="320.563" stroke="#165E67"></line><line x1="800" y1="400.563" x2="-4.13642e-08" y2="400.563" stroke="#165E67"></line><line x1="800" y1="480.563" x2="-4.13642e-08" y2="480.563" stroke="#165E67"></line><line x1="800" y1="560.563" x2="-4.13642e-08" y2="560.563" stroke="#165E67"></line><line x1="0.5" y1="1.53076e-07" x2="0.499997" y2="560" stroke="#165E67"></line><line x1="80.5" y1="7.65115e-08" x2="80.5" y2="560" stroke="#165E67"></line><line x1="160.5" y1="2.18557e-08" x2="160.5" y2="560" stroke="#165E67"></line><line x1="240.5" y1="2.18557e-08" x2="240.5" y2="560" stroke="#165E67"></line><line x1="320.5" y1="2.18557e-08" x2="320.5" y2="560" stroke="#165E67"></line><line x1="400.5" y1="2.18557e-08" x2="400.5" y2="560" stroke="#165E67"></line><line x1="480.5" y1="2.18557e-08" x2="480.5" y2="560" stroke="#165E67"></line><line x1="560.5" y1="2.18557e-08" x2="560.5" y2="560" stroke="#165E67"></line><line x1="640.5" y1="2.18557e-08" x2="640.5" y2="560" stroke="#165E67"></line><line x1="720.5" y1="2.18557e-08" x2="720.5" y2="560" stroke="#165E67"></line><line x1="800.5" y1="2.18557e-08" x2="800.5" y2="560" stroke="#165E67"></line></g></svg>